<?xml version="1.0" standalone="no"?><!DOCTYPE svg PUBLIC "-//W3C//DTD SVG 1.1//EN" "http://www.w3.org/Graphics/SVG/1.1/DTD/svg11.dtd"><svg t="1752030867894" class="icon" viewBox="0 0 1024 1024" version="1.1" xmlns="http://www.w3.org/2000/svg" p-id="5461" xmlns:xlink="http://www.w3.org/1999/xlink" width="200" height="200"><path d="M630.6 941l-3.6-24.6-74.1-71.3 7.1-326.3 222.5 129-8.1-46.7L562 427.4l4.9-223.5c0-0.4 0.2-0.8 0.2-1.3 0-0.9-0.1-1.9-0.1-2.8l0.1-6.4h-0.5c-4.3-43.3-35.6-125.9-54.7-125.9-18.6 0-50.3 82.5-54.7 125.9h-0.5l0.1 6.4c0 0.9-0.1 1.9-0.1 2.8 0 0.5 0.2 0.8 0.2 1.3l4.9 223.5-212.4 173.7-8.1 46.7 222.5-129 7.1 326.3-74.1 71.3-3.6 24.6 118-80.5h1.3L630.6 941z" fill="#666666" p-id="5462"></path></svg>